<?xml version="1.0" encoding="UTF-8" standalone="no"?>
<svg
   viewBox="0 0 288 73"
   enable-background="new 0 0 288 90"
   version="1.1"
   id="svg5257"
   sodipodi:docname="first-bank-and-trust-company-logo.svg"
   width="288"
   height="73"
   inkscape:version="1.2.2 (732a01da63, 2022-12-09)"
   xmlns:inkscape="http://www.inkscape.org/namespaces/inkscape"
   xmlns:sodipodi="http://sodipodi.sourceforge.net/DTD/sodipodi-0.dtd"
   xmlns:xlink="http://www.w3.org/1999/xlink"
   xmlns="http://www.w3.org/2000/svg"
   xmlns:svg="http://www.w3.org/2000/svg">
  <sodipodi:namedview
     id="namedview5259"
     pagecolor="#ffffff"
     bordercolor="#000000"
     borderopacity="0.25"
     inkscape:showpageshadow="2"
     inkscape:pageopacity="0.0"
     inkscape:pagecheckerboard="0"
     inkscape:deskcolor="#d1d1d1"
     showgrid="false"
     inkscape:zoom="2.9708306"
     inkscape:cx="126.56393"
     inkscape:cy="35.680258"
     inkscape:window-width="2560"
     inkscape:window-height="1009"
     inkscape:window-x="-8"
     inkscape:window-y="120"
     inkscape:window-maximized="1"
     inkscape:current-layer="svg5257" />
  <style
     type="text/css"
     id="style5235">.st0{clip-path:url(#SVGID_2_);fill:#C10230;} .st1{clip-path:url(#SVGID_2_);fill:none;stroke:#FFFFFF;stroke-width:1.5;} .st2{clip-path:url(#SVGID_2_);fill:#FFFFFF;} .st3{fill:#FFFFFF;} .st4{fill:#101820;}</style>
  <defs
     id="defs5238">
    <path
       id="SVGID_1_"
       d="M 9.76,4.91 H 141.53 V 70.8 H 9.76 Z" />
  </defs>
  <clipPath
     id="SVGID_2_">
    <use
       xlink:href="#SVGID_1_"
       overflow="visible"
       id="use5240" />
  </clipPath>
  <path
     class="st0"
     d="m 75.65,70.79 c 36.39,0 65.89,-14.75 65.89,-32.94 0,-18.19 -29.5,-32.94 -65.89,-32.94 -36.39,0 -65.89,14.74 -65.89,32.94 0,18.2 29.5,32.94 65.89,32.94 M 75.56,68 c 34.57,0 62.59,-13.46 62.59,-30.06 0,-16.6 -28.02,-30.06 -62.59,-30.06 -34.57,0 -62.6,13.46 -62.6,30.06 0,16.6 28.03,30.06 62.6,30.06"
     clip-path="url(#SVGID_2_)"
     id="path5243"
     transform="matrix(1.0694649,0,0,1.0694649,-10.198638,-5.0728185)" />
  <ellipse
     class="st1"
     cx="75.559998"
     cy="37.939999"
     rx="62.59"
     ry="30.059999"
     clip-path="url(#SVGID_2_)"
     id="ellipse5245"
     transform="matrix(1.0694649,0,0,1.0694649,-10.198638,-5.0728185)" />
  <path
     class="st2"
     d="m 47.31,3.03 c 2.66,0 4.81,-1.08 4.81,-2.41 0,-1.33 -2.15,-2.41 -4.81,-2.41 -2.66,0 -4.81,1.08 -4.81,2.41 0,1.33 2.16,2.41 4.81,2.41"
     clip-path="url(#SVGID_2_)"
     id="path5247" />
  <path
     class="st3"
     d="m 34.579855,20.348362 v 13.50734 h 0.941129 c 1.454472,0 2.641578,-0.213893 3.561317,-0.652375 0.919741,-0.43848 1.700451,-1.176411 2.342129,-2.203097 0.641679,-1.03738 1.05877,-2.427685 1.251273,-4.192302 h 0.844878 v 16.512537 h -0.844878 c -0.310144,-3.122837 -1.144326,-5.17621 -2.513241,-6.170812 -1.368916,-0.994602 -2.908946,-1.486556 -4.641478,-1.486556 h -0.941129 v 10.063664 c 0,1.67906 0.09624,2.727135 0.27806,3.154922 0.18181,0.41709 0.545428,0.791404 1.090854,1.101548 0.545428,0.310145 1.272664,0.470564 2.192404,0.470564 h 1.090854 v 0.898351 h -17.1863 v -0.91974 h 1.090854 c 0.951824,0 1.721838,-0.171114 2.299349,-0.513343 0.417092,-0.224587 0.748626,-0.609595 0.973213,-1.165716 0.18181,-0.385008 0.267367,-1.400999 0.267367,-3.05867 V 24.080792 c 0,-1.679059 -0.08556,-2.727134 -0.267367,-3.15492 -0.181809,-0.417091 -0.534732,-0.791404 -1.080159,-1.101549 -0.545428,-0.310145 -1.272664,-0.470565 -2.192403,-0.470565 h -1.090854 v -0.89835 H 49.77695 v 9.43268 H 48.782348 C 48.55776,25.674295 47.98025,24.038014 47.049815,22.968549 46.119379,21.899085 44.771855,21.15046 43.017932,20.711979 42.044719,20.466002 40.258713,20.348362 37.638524,20.348362 Z m 27.207185,8.320435 v 17.96701 c 0,1.604197 0.181809,2.620187 0.556122,3.069363 0.374312,0.449176 1.101548,0.695153 2.181708,0.759321 v 0.876961 H 52.279498 v -0.876961 c 1.005296,-0.03208 1.743227,-0.320839 2.235182,-0.876961 0.320839,-0.374314 0.481259,-1.358221 0.481259,-2.962419 V 33.395832 c 0,-1.604198 -0.18181,-2.620189 -0.556122,-3.069365 -0.374313,-0.449174 -1.090854,-0.695152 -2.160319,-0.75932 v -0.89835 z m 14.352218,0 v 5.144126 c 1.49725,-2.342128 2.823387,-3.903547 3.946326,-4.662866 1.133632,-0.770015 2.224486,-1.155023 3.272562,-1.155023 0.909045,0 1.625586,0.278062 2.171013,0.834183 0.545427,0.556122 0.812793,1.347526 0.812793,2.363516 0,1.080161 -0.267366,1.925037 -0.791404,2.523939 -0.524037,0.598899 -1.155021,0.89835 -1.903647,0.89835 -0.855571,0 -1.604197,-0.278061 -2.235182,-0.823488 -0.630984,-0.545428 -1.005296,-0.855572 -1.112243,-0.91974 -0.160419,-0.09625 -0.352923,-0.149726 -0.556122,-0.149726 -0.470565,0 -0.909045,0.18181 -1.336831,0.534733 -0.663068,0.545428 -1.165716,1.336832 -1.497251,2.352823 -0.513343,1.572113 -0.780709,3.293951 -0.780709,5.186905 v 5.208293 l 0.02138,1.358221 c 0,0.919739 0.05348,1.507945 0.171115,1.764616 0.192503,0.438481 0.481258,0.75932 0.855571,0.962518 0.374312,0.203199 1.026686,0.331535 1.925036,0.374314 v 0.876961 H 66.877693 v -0.876961 c 0.983908,-0.08556 1.65767,-0.352925 1.999898,-0.812794 0.352925,-0.45987 0.524039,-1.67906 0.524039,-3.646875 V 33.470694 c 0,-1.294052 -0.06416,-2.11754 -0.192503,-2.470464 -0.160422,-0.449175 -0.395703,-0.780709 -0.705847,-0.994602 -0.310146,-0.213892 -0.844878,-0.352924 -1.625587,-0.438481 v -0.89835 z m 26.950522,-0.630984 0.36361,7.732231 h -0.82349 c -0.98391,-2.29935 -2.01059,-3.860769 -3.069364,-4.705646 -1.05877,-0.844877 -2.11754,-1.261968 -3.165617,-1.261968 -0.663067,0 -1.229876,0.224588 -1.70045,0.663068 -0.470561,0.449175 -0.705843,0.962518 -0.705843,1.540028 0,0.438482 0.160422,0.855573 0.481257,1.26197 0.513348,0.663069 1.967812,1.796701 4.342033,3.400898 2.374214,1.604197 3.935634,2.973112 4.694954,4.096051 0.74861,1.122937 1.12293,2.384906 1.12293,3.764515 0,1.261969 -0.31014,2.491854 -0.94113,3.711044 -0.63098,1.208495 -1.51864,2.13893 -2.66296,2.791303 -1.144324,0.641678 -2.416992,0.973213 -3.807302,0.973213 -1.080158,0 -2.534633,-0.342229 -4.342025,-1.015992 -0.48126,-0.181809 -0.812793,-0.267366 -0.994603,-0.267366 -0.534732,0 -0.973213,0.406397 -1.33683,1.208495 h -0.802099 l -0.385008,-8.149322 h 0.823488 c 0.727236,2.128235 1.721839,3.732433 2.994502,4.801898 1.272661,1.069464 2.470466,1.604197 3.604096,1.604197 0.780713,0 1.411697,-0.235283 1.903648,-0.716542 0.491951,-0.481259 0.737926,-1.05877 0.737926,-1.732534 0,-0.780708 -0.245975,-1.443777 -0.727232,-2.010593 -0.481256,-0.566817 -1.57211,-1.422389 -3.251171,-2.566715 -2.470465,-1.711144 -4.074663,-3.026586 -4.801899,-3.924936 -1.069465,-1.326137 -1.604197,-2.791304 -1.604197,-4.384806 0,-1.743228 0.5989,-3.326036 1.807395,-4.737729 1.208495,-1.411694 2.941028,-2.117541 5.218992,-2.117541 1.229876,0 2.416987,0.299451 3.56131,0.898352 0.438479,0.245976 0.791409,0.363617 1.069469,0.363617 0.28876,0 0.52404,-0.06416 0.70585,-0.181809 0.18181,-0.117641 0.45987,-0.45987 0.84488,-1.026687 h 0.84488 z m 13.98859,-7.657368 v 8.288352 h 5.37941 v 2.395601 h -5.37941 v 13.9886 c 0,1.304747 0.0642,2.149625 0.18181,2.534632 0.11765,0.385007 0.33154,0.684457 0.64168,0.919739 0.31014,0.235283 0.58821,0.352924 0.84488,0.352924 1.04808,0 2.04268,-0.802099 2.9838,-2.395602 l 0.72724,0.534734 c -1.30474,3.101447 -3.43298,4.65217 -6.37402,4.65217 -1.43307,0 -2.65226,-0.395701 -3.64687,-1.1978 -0.99459,-0.802098 -1.62558,-1.689754 -1.90365,-2.673661 -0.16041,-0.545427 -0.24597,-2.031983 -0.24597,-4.459669 V 31.064398 h -2.96242 v -0.844877 c 2.03199,-1.433083 3.76452,-2.951723 5.19761,-4.534532 1.43308,-1.582807 2.67365,-3.358119 3.74312,-5.304544 z"
     id="path5249"
     style="stroke-width:1.06946" />
  <ellipse
     class="st3"
     cx="57.733772"
     cy="22.808128"
     rx="4.6842561"
     ry="2.3849065"
     id="ellipse5251"
     style="stroke-width:1.06946" />
  <path
     class="st4"
     d="m 154.77701,61.490673 h 3.68966 v 0.342228 c -0.4171,0.06416 -0.73795,0.18181 -0.97322,0.363618 -0.23529,0.18181 -0.54543,0.62029 -0.91975,1.304748 -0.37431,0.684456 -0.90903,1.443777 -1.59349,2.277959 0.59889,0.545427 1.09086,0.919741 1.47587,1.133633 0.26735,0.149725 0.52402,0.224588 0.7807,0.224588 0.43848,0 0.83418,-0.288755 1.18711,-0.866267 l 0.36361,0.192504 c -0.48126,0.951824 -1.00529,1.625586 -1.55072,2.031983 -0.41709,0.29945 -0.89835,0.449175 -1.43309,0.449175 -0.45987,0 -0.89835,-0.09624 -1.31544,-0.29945 -0.4171,-0.203197 -0.91974,-0.566816 -1.51864,-1.112243 -0.73792,0.491953 -1.43309,0.855572 -2.08546,1.08016 -0.65237,0.224587 -1.32614,0.331533 -2.03198,0.331533 -1.12294,0 -2.02129,-0.310144 -2.68436,-0.91974 -0.66306,-0.609594 -0.99459,-1.326135 -0.99459,-2.149624 0,-0.887656 0.32083,-1.65767 0.95181,-2.320738 0.63099,-0.652374 1.55073,-1.229885 2.75922,-1.70045 -0.14973,-0.385007 -0.26735,-0.759319 -0.34222,-1.122937 -0.0749,-0.363617 -0.11764,-0.727236 -0.11764,-1.069465 0,-0.951824 0.33153,-1.732534 0.9946,-2.363517 0.66307,-0.630985 1.51864,-0.94113 2.55603,-0.94113 0.83417,0 1.49724,0.213894 1.98919,0.630984 0.49196,0.417092 0.72724,0.909046 0.72724,1.465168 0,0.673762 -0.24598,1.240579 -0.74862,1.721838 -0.50266,0.481259 -1.29405,0.909045 -2.37422,1.304747 0.67376,1.176411 1.64697,2.449074 2.94103,3.807295 0.86626,-0.973213 1.30476,-1.818091 1.30476,-2.513242 0,-0.245977 -0.0856,-0.45987 -0.25668,-0.630984 -0.17111,-0.171114 -0.42779,-0.278062 -0.75932,-0.310146 v -0.342228 z m -5.66817,0.962518 c -0.47056,0.203198 -0.81279,0.417092 -1.0053,0.641679 -0.27805,0.331534 -0.41709,0.705847 -0.41709,1.112243 0,0.556122 0.16042,1.112244 0.48127,1.657671 0.32083,0.545427 0.71653,0.973214 1.16571,1.283357 0.44917,0.310146 0.90904,0.449176 1.36892,0.449176 0.22459,0 0.48126,-0.05348 0.75931,-0.149725 0.27806,-0.09624 0.58822,-0.245977 0.91975,-0.43848 -1.42239,-1.465168 -2.51324,-2.983808 -3.27257,-4.555921 z m 2.12823,-1.497251 c 0.6203,-0.235282 1.0374,-0.481258 1.25129,-0.73793 0.21389,-0.267367 0.32083,-0.577512 0.32083,-0.951824 0,-0.663069 -0.17111,-1.219189 -0.52404,-1.67906 -0.23527,-0.29945 -0.51333,-0.449176 -0.85557,-0.449176 -0.27805,0 -0.51334,0.106947 -0.71654,0.331535 -0.20319,0.224587 -0.29946,0.513343 -0.29946,0.887655 0,0.288756 0.0428,0.598901 0.13905,0.930435 0.10694,0.331534 0.33152,0.887656 0.68444,1.668365 z m 15.4003,-26.864956 c 3.15492,0.737931 5.3794,1.625586 6.65207,2.673662 1.82879,1.486556 2.74853,3.422288 2.74853,5.7965 0,2.502547 -1.00529,4.577309 -3.01589,6.21359 -2.47046,1.978509 -6.06387,2.973113 -10.76951,2.973113 h -16.90825 v -0.909047 c 1.54004,0 2.57742,-0.139029 3.13354,-0.427785 0.54543,-0.288755 0.93044,-0.663068 1.15502,-1.112244 0.22459,-0.459869 0.33153,-1.582808 0.33153,-3.390203 V 24.305381 c 0,-1.796701 -0.10694,-2.930334 -0.33153,-3.400899 -0.22458,-0.470563 -0.60959,-0.834182 -1.16571,-1.112243 -0.55612,-0.278061 -1.59351,-0.417092 -3.11214,-0.417092 v -0.919739 h 15.9564 c 3.8073,0 6.51305,0.342229 8.09585,1.015992 1.58282,0.684457 2.83408,1.689755 3.75383,3.047974 0.91974,1.347526 1.37961,2.780608 1.37961,4.309944 0,1.604197 -0.57751,3.026586 -1.74323,4.277858 -1.18711,1.251275 -3.22978,2.245877 -6.16012,2.983808 z m -8.93003,1.251274 v 10.673258 l -0.0215,1.229885 c 0,0.887656 0.22459,1.550725 0.67377,1.999899 0.44918,0.449176 1.11226,0.673763 1.99991,0.673763 1.30474,0 2.51324,-0.288755 3.62549,-0.866266 1.10154,-0.577511 1.94641,-1.422389 2.54531,-2.523937 0.58821,-1.101548 0.88767,-2.331434 0.88767,-3.689654 0,-1.550724 -0.36363,-2.951723 -1.08016,-4.181607 -0.71655,-1.24058 -1.71115,-2.096151 -2.97312,-2.588105 -1.27267,-0.513343 -3.15492,-0.748625 -5.65747,-0.727236 z m 0,-1.914343 c 2.32074,0 4.03188,-0.256671 5.14412,-0.78071 1.10156,-0.524036 1.94644,-1.261967 2.54533,-2.213791 0.58821,-0.951824 0.88766,-2.160318 0.88766,-3.63618 0,-1.475862 -0.28876,-2.673663 -0.86627,-3.614792 -0.5775,-0.941129 -1.41169,-1.65767 -2.49185,-2.149623 -1.08016,-0.491954 -2.81269,-0.727236 -5.20829,-0.716542 v 13.111638 z m 34.45817,14.919035 c -2.802,2.470463 -5.31525,3.711043 -7.53974,3.711043 -1.30474,0 -2.3956,-0.427787 -3.26187,-1.294053 -0.86627,-0.855571 -1.30474,-1.935731 -1.30474,-3.229783 0,-1.753923 0.74863,-3.326036 2.25657,-4.727035 1.50795,-1.400999 4.7805,-3.261868 9.83908,-5.582606 v -2.29935 c 0,-1.732533 -0.0962,-2.823386 -0.27807,-3.272562 -0.19251,-0.449176 -0.54542,-0.844878 -1.06946,-1.176411 -0.52404,-0.331535 -1.11224,-0.502649 -1.76462,-0.502649 -1.06946,0 -1.93573,0.235282 -2.63088,0.716542 -0.42779,0.29945 -0.64168,0.641679 -0.64168,1.026686 0,0.342229 0.22459,0.770014 0.68446,1.272663 0.62029,0.705848 0.93043,1.379609 0.93043,2.031983 0,0.802098 -0.29945,1.486556 -0.89835,2.053373 -0.5989,0.566816 -1.3796,0.844876 -2.34213,0.844876 -1.02669,0 -1.89296,-0.310143 -2.5881,-0.930433 -0.69516,-0.62029 -1.04808,-1.347526 -1.04808,-2.181708 0,-1.176411 0.47056,-2.29935 1.401,-3.37951 0.93043,-1.080159 2.23518,-1.892952 3.90355,-2.470463 1.66836,-0.577511 3.4009,-0.855571 5.20829,-0.855571 2.18172,0 3.90356,0.459868 5.16552,1.390303 1.27267,0.91974 2.08545,1.925037 2.47046,3.005196 0.22458,0.684457 0.34223,2.267266 0.34223,4.737729 v 8.908641 c 0,1.048078 0.0427,1.700451 0.12833,1.978511 0.0855,0.267367 0.2032,0.470565 0.36362,0.598901 0.16043,0.128335 0.35293,0.192503 0.56682,0.192503 0.42779,0 0.85557,-0.29945 1.30475,-0.909044 l 0.73792,0.588205 c -0.82349,1.208495 -1.66836,2.09615 -2.54533,2.641578 -0.87695,0.545427 -1.87154,0.823488 -2.9838,0.823488 -1.30475,0 -2.33143,-0.310144 -3.06936,-0.91974 -0.72723,-0.62029 -1.17641,-1.550723 -1.33682,-2.791303 z m 0,-1.786006 v -7.678758 c -1.97852,1.165717 -3.45438,2.406296 -4.4169,3.732432 -0.64168,0.887656 -0.96251,1.775312 -0.96251,2.673662 0,0.748625 0.26736,1.411694 0.81278,1.989206 0.4064,0.438479 0.98392,0.663068 1.72184,0.663068 0.81279,-0.0107 1.76462,-0.470565 2.84479,-1.37961 z m 21.83846,-17.774506 v 2.973112 c 1.17642,-1.272663 2.31004,-2.203097 3.3902,-2.780607 1.08016,-0.577512 2.24587,-0.866267 3.48646,-0.866267 1.48655,0 2.72714,0.417091 3.71105,1.240578 0.9839,0.823489 1.63627,1.850174 1.96781,3.080059 0.25667,0.930434 0.3957,2.727135 0.3957,5.379408 v 8.930032 c 0,1.764616 0.16042,2.866166 0.48126,3.304645 0.32084,0.438482 0.98391,0.705847 1.9999,0.823489 v 0.887656 h -11.62509 v -0.887656 c 0.86627,-0.117642 1.48656,-0.470564 1.86087,-1.08016 0.25667,-0.406396 0.3957,-1.422388 0.3957,-3.047974 v -10.21339 c 0,-1.882257 -0.0749,-3.069363 -0.22458,-3.561318 -0.14972,-0.491954 -0.3957,-0.866265 -0.74862,-1.144327 -0.35294,-0.267366 -0.73794,-0.406396 -1.16573,-0.406396 -1.41168,0 -2.71643,1.005297 -3.92493,3.015891 v 12.298845 c 0,1.721838 0.16042,2.801998 0.48125,3.261868 0.32085,0.459869 0.90906,0.748625 1.77533,0.855571 v 0.887656 h -11.6037 v -0.887656 c 0.96252,-0.09624 1.64698,-0.406396 2.06406,-0.930434 0.27806,-0.363618 0.4171,-1.422388 0.4171,-3.187005 V 33.770145 c 0,-1.732533 -0.16042,-2.812694 -0.48126,-3.240479 -0.32084,-0.427786 -0.98391,-0.705847 -1.9999,-0.834182 v -0.909046 z m 27.90234,-10.33103 v 21.891945 l 5.32594,-5.229684 c 1.09085,-1.058769 1.7753,-1.828783 2.05337,-2.310043 0.26736,-0.470564 0.40639,-0.930435 0.40639,-1.37961 0,-0.449175 -0.18181,-0.812793 -0.53473,-1.101549 -0.36362,-0.299449 -1.06946,-0.502648 -2.10684,-0.641678 v -0.909046 h 10.28825 v 0.909046 c -0.98392,0.05348 -1.83949,0.278061 -2.57741,0.695151 -0.73794,0.417092 -2.18171,1.668366 -4.32064,3.764517 l -2.50255,2.449074 5.40079,7.903345 c 2.17102,3.208395 3.46507,5.005097 3.88216,5.400797 0.55612,0.556122 1.26197,0.866267 2.10685,0.930435 v 0.887656 h -11.84967 v -0.887656 c 0.52403,0 0.90905,-0.09624 1.14432,-0.29945 0.23529,-0.203198 0.35293,-0.406396 0.35293,-0.641679 0,-0.374312 -0.34223,-1.069464 -1.02668,-2.085456 l -4.54523,-6.652071 -1.47586,1.443777 v 4.128135 c 0,1.753922 0.16043,2.844776 0.49195,3.272562 0.33154,0.43848 0.99461,0.705847 2.01059,0.823487 v 0.887657 h -11.84967 v -0.887657 c 0.96253,-0.09624 1.64698,-0.406396 2.06407,-0.930434 0.27807,-0.363617 0.4171,-1.411693 0.4171,-3.165615 V 23.407031 c 0,-1.732534 -0.16043,-2.812693 -0.48127,-3.24048 -0.32084,-0.427785 -0.9839,-0.705846 -1.9999,-0.834182 v -0.876961 z m -67.70782,37.912527 v 3.347426 h -0.33153 c -0.19251,-0.770014 -0.4064,-1.326136 -0.65238,-1.668364 -0.23528,-0.331536 -0.55613,-0.609596 -0.97322,-0.8021 -0.23527,-0.106947 -0.63098,-0.16042 -1.20848,-0.16042 h -0.91976 v 9.528932 c 0,0.630985 0.032,1.026687 0.10696,1.187107 0.0749,0.160419 0.2032,0.299449 0.4064,0.417091 0.20319,0.117641 0.48126,0.181809 0.83418,0.181809 h 0.40639 v 0.320839 h -6.47026 v -0.331534 h 0.4064 c 0.35293,0 0.65237,-0.06416 0.86627,-0.192504 0.16041,-0.08556 0.27806,-0.235282 0.37431,-0.43848 0.0642,-0.149725 0.0962,-0.524038 0.0962,-1.144328 V 57.084477 H 166.263 c -0.83418,0 -1.43308,0.18181 -1.81809,0.524038 -0.52405,0.491954 -0.86626,1.197801 -1.0053,2.106846 h -0.34223 v -3.347426 z m 3.45437,3.828685 v 1.935732 c 0.56681,-0.876961 1.05877,-1.465167 1.48656,-1.753922 0.42778,-0.288756 0.83418,-0.438481 1.22989,-0.438481 0.34221,0 0.60958,0.106947 0.81278,0.310144 0.2032,0.213894 0.31016,0.502649 0.31016,0.887657 0,0.406396 -0.0962,0.727235 -0.29946,0.951823 -0.19251,0.224588 -0.43849,0.342228 -0.71654,0.342228 -0.32084,0 -0.5989,-0.106946 -0.83419,-0.310143 -0.23528,-0.203199 -0.37431,-0.32084 -0.41709,-0.34223 -0.0642,-0.03208 -0.12832,-0.05347 -0.21389,-0.05347 -0.18181,0 -0.34223,0.06416 -0.50264,0.203198 -0.24598,0.203199 -0.43849,0.502648 -0.56682,0.887656 -0.19251,0.588206 -0.28876,1.240579 -0.28876,1.946426 v 1.957121 l 0.0107,0.513343 c 0,0.342229 0.0214,0.566817 0.0642,0.663068 0.0749,0.16042 0.18181,0.288756 0.32084,0.363618 0.13902,0.07486 0.385,0.128336 0.72723,0.139031 v 0.320839 h -4.59862 v -0.331534 c 0.3743,-0.03208 0.62028,-0.128336 0.74862,-0.310145 0.12833,-0.171114 0.1925,-0.630984 0.1925,-1.368914 v -4.705646 c 0,-0.481259 -0.0215,-0.791404 -0.0749,-0.930434 -0.0642,-0.171115 -0.14973,-0.29945 -0.26737,-0.374313 -0.11764,-0.07486 -0.32084,-0.128336 -0.6096,-0.160419 v -0.342229 z m 12.9833,0 v 6.673461 c 0,0.652374 0.0642,1.05877 0.18181,1.219189 0.11764,0.160421 0.36362,0.267368 0.73794,0.310146 v 0.320839 h -3.47576 v -1.133632 c -0.4064,0.481258 -0.8128,0.844877 -1.21919,1.058769 -0.4064,0.213893 -0.86627,0.331534 -1.36892,0.331534 -0.48127,0 -0.90905,-0.149725 -1.28336,-0.43848 -0.37431,-0.29945 -0.62029,-0.641679 -0.74862,-1.03738 -0.12835,-0.395703 -0.19251,-1.080161 -0.19251,-2.064068 V 62.05749 c 0,-0.641679 -0.0642,-1.048076 -0.18181,-1.197801 -0.11764,-0.16042 -0.36361,-0.256671 -0.73792,-0.310145 v -0.342229 h 3.47575 v 5.828584 c 0,0.609595 0.032,0.994602 0.0855,1.17641 0.0535,0.18181 0.14973,0.310146 0.27808,0.395703 0.12832,0.09624 0.26735,0.13903 0.43847,0.13903 0.21389,0 0.4171,-0.05348 0.58821,-0.171114 0.24597,-0.16042 0.53473,-0.481259 0.87696,-0.951824 v -4.55592 c 0,-0.641679 -0.0642,-1.048076 -0.18182,-1.197801 -0.11763,-0.160419 -0.36361,-0.256671 -0.73793,-0.310144 V 60.21801 h 3.46507 z m 7.52904,-0.235282 0.13902,2.908945 h -0.31014 c -0.37432,-0.866267 -0.75932,-1.454472 -1.15502,-1.764618 -0.3957,-0.310144 -0.79141,-0.470564 -1.18711,-0.470564 -0.24597,0 -0.45987,0.08556 -0.64168,0.245977 -0.18181,0.171114 -0.26736,0.363619 -0.26736,0.577511 0,0.160419 0.0642,0.320839 0.18182,0.470565 0.19249,0.245976 0.73792,0.673762 1.63627,1.283357 0.89836,0.609595 1.47586,1.112244 1.76462,1.540029 0.27806,0.417092 0.42779,0.898351 0.42779,1.422388 0,0.470566 -0.11765,0.94113 -0.35294,1.390306 -0.23527,0.459868 -0.56681,0.802098 -1.00529,1.048075 -0.42778,0.245976 -0.90904,0.363617 -1.43307,0.363617 -0.4064,0 -0.95184,-0.128335 -1.6256,-0.385006 -0.18181,-0.06416 -0.31014,-0.09624 -0.37432,-0.09624 -0.20319,0 -0.36361,0.149725 -0.50264,0.449175 h -0.29945 l -0.14972,-3.058668 h 0.31014 c 0.27806,0.802099 0.65237,1.400998 1.12293,1.807395 0.48128,0.395701 0.93045,0.598901 1.35823,0.598901 0.28875,0 0.53473,-0.08556 0.71654,-0.267367 0.18181,-0.181809 0.27805,-0.395701 0.27805,-0.652374 0,-0.288755 -0.0855,-0.545426 -0.26735,-0.75932 -0.18182,-0.213893 -0.58822,-0.534732 -1.2192,-0.962518 -0.93043,-0.641679 -1.52933,-1.133632 -1.80739,-1.475862 -0.39571,-0.502648 -0.5989,-1.048075 -0.5989,-1.646975 0,-0.652374 0.22459,-1.251274 0.68445,-1.786007 0.44918,-0.534732 1.10156,-0.802098 1.96783,-0.802098 0.45986,0 0.90904,0.117641 1.33683,0.342229 0.16042,0.09624 0.29944,0.13903 0.3957,0.13903 0.10694,0 0.1925,-0.02138 0.26736,-0.06416 0.0642,-0.04278 0.17111,-0.171114 0.32083,-0.385007 h 0.28877 z m 5.26176,-2.876861 v 3.112143 h 2.0213 v 0.898351 h -2.0213 v 5.261767 c 0,0.491954 0.0215,0.812793 0.0642,0.951823 0.0428,0.139031 0.12834,0.256673 0.24597,0.34223 0.11764,0.08556 0.22459,0.128335 0.32085,0.128335 0.39569,0 0.77001,-0.299449 1.12294,-0.89835 l 0.27805,0.203198 c -0.49195,1.165717 -1.29404,1.753922 -2.3956,1.753922 -0.54542,0 -0.9946,-0.149725 -1.36891,-0.449175 -0.37431,-0.299451 -0.60958,-0.641679 -0.71654,-1.005298 -0.0642,-0.203197 -0.0962,-0.770014 -0.0962,-1.67906 v -4.598698 h -1.11232 v -0.320839 c 0.77002,-0.534733 1.4224,-1.112243 1.95713,-1.70045 0.53473,-0.5989 1.00529,-1.261968 1.41168,-1.999899 z m 19.32523,-1.005296 v 4.288555 h -0.35293 c -0.26736,-1.12294 -0.77,-1.978511 -1.49725,-2.566718 -0.72723,-0.598899 -1.55072,-0.887655 -2.48115,-0.887655 -0.77002,0 -1.47586,0.224587 -2.11753,0.663069 -0.64169,0.43848 -1.11225,1.026685 -1.41171,1.743226 -0.385,0.919741 -0.57751,1.935733 -0.57751,3.058671 0,1.101548 0.13903,2.106845 0.41709,3.01589 0.27807,0.909045 0.71655,1.593503 1.31546,2.064068 0.59888,0.470564 1.36891,0.695151 2.31003,0.695151 0.78071,0 1.48656,-0.171114 2.13893,-0.513342 0.64168,-0.34223 1.32614,-0.930434 2.04268,-1.753922 v 1.069464 c -0.69515,0.727236 -1.4117,1.251274 -2.16032,1.572114 -0.74863,0.320839 -1.62559,0.491954 -2.63088,0.491954 -1.31545,0 -2.49185,-0.267367 -3.51854,-0.791404 -1.02669,-0.524039 -1.81809,-1.283358 -2.37421,-2.277961 -0.55613,-0.994603 -0.83419,-2.042678 -0.83419,-3.165615 0,-1.176412 0.31014,-2.29935 0.93043,-3.358121 0.6203,-1.058769 1.45448,-1.882258 2.49186,-2.459769 1.04807,-0.588205 2.16032,-0.876961 3.33673,-0.876961 0.86627,0 1.786,0.192503 2.74853,0.566817 0.55611,0.213893 0.91974,0.331533 1.06947,0.331533 0.19249,0 0.36361,-0.07486 0.50264,-0.213892 0.13904,-0.13903 0.23528,-0.363619 0.27806,-0.684458 h 0.37431 z m 5.66817,3.860768 c 0.73793,0 1.43307,0.192504 2.06407,0.577511 0.64167,0.385007 1.12292,0.930434 1.45447,1.636281 0.33154,0.705847 0.50264,1.475861 0.50264,2.310044 0,1.208495 -0.31014,2.224488 -0.91973,3.037281 -0.73793,0.983907 -1.76462,1.47586 -3.06937,1.47586 -1.28336,0 -2.26726,-0.449174 -2.96242,-1.347525 -0.69515,-0.89835 -1.03738,-1.935732 -1.03738,-3.122838 0,-1.21919 0.35293,-2.288654 1.05877,-3.197699 0.70585,-0.909045 1.67907,-1.368915 2.90895,-1.368915 z m 0.0428,0.652373 c -0.31015,0 -0.57752,0.117642 -0.80211,0.352924 -0.22458,0.235283 -0.36361,0.695151 -0.43847,1.390304 -0.0749,0.684458 -0.10695,1.646976 -0.10695,2.87686 0,0.652374 0.0428,1.261969 0.12833,1.818091 0.0642,0.427786 0.2139,0.759319 0.42779,0.983907 0.21389,0.224588 0.47056,0.34223 0.74863,0.34223 0.27805,0 0.50264,-0.07486 0.68445,-0.224589 0.23529,-0.203198 0.39571,-0.491953 0.47057,-0.866266 0.11764,-0.57751 0.18181,-1.743228 0.18181,-3.49715 0,-1.037381 -0.0535,-1.743228 -0.17111,-2.128236 -0.11765,-0.385006 -0.28876,-0.663068 -0.51335,-0.844876 -0.14973,-0.139031 -0.35292,-0.203199 -0.60959,-0.203199 z m 8.81239,-0.395702 v 1.122938 c 0.47056,-0.513343 0.89834,-0.866265 1.30474,-1.069465 0.3957,-0.203197 0.83418,-0.310144 1.30475,-0.310144 0.54543,0 1.0053,0.128336 1.37962,0.385007 0.3743,0.256672 0.65236,0.641679 0.85557,1.165717 0.48125,-0.545427 0.95181,-0.941129 1.40099,-1.187106 0.44917,-0.245977 0.90904,-0.363618 1.401,-0.363618 0.58821,0 1.05877,0.13903 1.41169,0.406397 0.35292,0.267366 0.58821,0.609594 0.72724,1.026686 0.13903,0.41709 0.2032,1.080159 0.2032,1.989204 v 3.486456 c 0,0.652374 0.0642,1.05877 0.18181,1.219189 0.11764,0.160421 0.36361,0.256672 0.73792,0.310146 v 0.342228 h -4.4062 v -0.331534 c 0.34224,-0.03208 0.59891,-0.160419 0.77003,-0.395702 0.10695,-0.16042 0.16041,-0.545427 0.16041,-1.133632 v -3.668265 c 0,-0.759321 -0.032,-1.240579 -0.0962,-1.443778 -0.0642,-0.203198 -0.16041,-0.363618 -0.28875,-0.459869 -0.12834,-0.09624 -0.27806,-0.149725 -0.45987,-0.149725 -0.25667,0 -0.52404,0.09624 -0.79141,0.288755 -0.26736,0.192503 -0.53472,0.481259 -0.81279,0.855572 v 4.57731 c 0,0.609594 0.0535,0.994601 0.14973,1.155021 0.13903,0.224588 0.40639,0.352924 0.8021,0.374313 v 0.331534 h -4.4062 v -0.331534 c 0.23528,-0.0107 0.42778,-0.07486 0.55613,-0.181809 0.13902,-0.106947 0.22458,-0.235282 0.27805,-0.385007 0.0427,-0.149725 0.0642,-0.470565 0.0642,-0.973213 v -3.668265 c 0,-0.770015 -0.032,-1.251273 -0.0962,-1.443777 -0.0642,-0.192504 -0.16042,-0.352924 -0.31015,-0.45987 -0.13903,-0.106946 -0.29944,-0.16042 -0.45987,-0.16042 -0.24598,0 -0.45987,0.06416 -0.66306,0.192504 -0.28876,0.192504 -0.58822,0.513343 -0.90905,0.962518 v 4.57731 c 0,0.5989 0.0642,0.994602 0.18181,1.187106 0.11764,0.192504 0.36361,0.310144 0.73793,0.342229 v 0.342228 h -4.3955 v -0.331534 c 0.36361,-0.03208 0.6096,-0.149725 0.77002,-0.342229 0.10695,-0.128336 0.14973,-0.524037 0.14973,-1.187105 v -4.812592 c 0,-0.641679 -0.0642,-1.048077 -0.18182,-1.197801 -0.11763,-0.160419 -0.36362,-0.256672 -0.73793,-0.310144 v -0.34223 z m 15.30404,7.657368 v 3.176311 c 0,0.438481 0.032,0.73793 0.10694,0.89835 0.0749,0.160419 0.18182,0.267367 0.32085,0.34223 0.13902,0.07486 0.42778,0.106946 0.85557,0.106946 v 0.342228 h -4.85538 v -0.342228 c 0.37432,-0.0107 0.65238,-0.117642 0.83419,-0.32084 0.11764,-0.139031 0.18181,-0.502648 0.18181,-1.08016 v -8.994198 c 0,-0.598901 -0.0749,-0.983909 -0.21389,-1.155023 -0.13904,-0.171114 -0.40641,-0.267365 -0.8128,-0.288754 v -0.34223 h 3.57202 v 1.122938 c 0.29945,-0.43848 0.59889,-0.748625 0.90903,-0.951822 0.43849,-0.288757 0.93044,-0.427787 1.44379,-0.427787 0.62029,0 1.19779,0.192504 1.71114,0.588206 0.51334,0.395702 0.89835,0.941128 1.16571,1.636281 0.26736,0.695152 0.39571,1.443777 0.39571,2.245876 0,0.866266 -0.13903,1.646976 -0.4171,2.363518 -0.27805,0.716541 -0.67376,1.261968 -1.1978,1.625586 -0.52403,0.374312 -1.11224,0.556121 -1.75392,0.556121 -0.47056,0 -0.90904,-0.106946 -1.31544,-0.310145 -0.27806,-0.13903 -0.59891,-0.406396 -0.93043,-0.791404 z m 0,-0.919739 c 0.52403,0.737931 1.08015,1.112243 1.67906,1.112243 0.33152,0 0.59889,-0.171114 0.81279,-0.524037 0.31014,-0.513343 0.47057,-1.486556 0.47057,-2.919639 0,-1.465168 -0.17111,-2.470464 -0.52405,-3.015891 -0.23528,-0.363618 -0.54541,-0.534733 -0.93043,-0.534733 -0.6096,0 -1.11223,0.438481 -1.50794,1.326137 z m 11.7855,0.534732 c -1.03739,0.91974 -1.96782,1.37961 -2.80199,1.37961 -0.48128,0 -0.88766,-0.16042 -1.20851,-0.481259 -0.32083,-0.32084 -0.48125,-0.716541 -0.48125,-1.197801 0,-0.652373 0.27805,-1.229885 0.83419,-1.753922 0.55611,-0.524039 1.7753,-1.208496 3.65756,-2.074762 v -0.855572 c 0,-0.641679 -0.032,-1.048075 -0.10696,-1.219189 -0.0749,-0.171115 -0.20319,-0.310146 -0.39569,-0.438482 -0.1925,-0.128335 -0.41709,-0.192503 -0.65238,-0.192503 -0.39569,0 -0.71653,0.08556 -0.9732,0.267366 -0.16043,0.106947 -0.23529,0.235283 -0.23529,0.385008 0,0.128336 0.0855,0.288755 0.25667,0.470564 0.23529,0.256672 0.35293,0.513343 0.35293,0.759319 0,0.299451 -0.10696,0.556122 -0.33154,0.759321 -0.22459,0.213893 -0.51334,0.310145 -0.86626,0.310145 -0.38501,0 -0.70584,-0.117642 -0.96252,-0.342229 -0.25668,-0.235282 -0.385,-0.502648 -0.385,-0.812794 0,-0.438479 0.17111,-0.855571 0.52403,-1.251272 0.35292,-0.395703 0.83418,-0.705847 1.45447,-0.919741 0.62029,-0.213892 1.26197,-0.320839 1.93573,-0.320839 0.8128,0 1.44378,0.171114 1.91435,0.513344 0.47056,0.342228 0.77001,0.716541 0.91973,1.112243 0.0855,0.256671 0.12834,0.844876 0.12834,1.753922 v 3.304646 c 0,0.385008 0.0107,0.630984 0.0427,0.73793 0.032,0.09624 0.0749,0.171115 0.13904,0.224589 0.0642,0.05348 0.12833,0.07486 0.21389,0.07486 0.16042,0 0.32084,-0.106947 0.48126,-0.331534 l 0.27805,0.213893 c -0.29944,0.449175 -0.62028,0.780709 -0.94111,0.983908 -0.32085,0.203197 -0.69516,0.299449 -1.11225,0.299449 -0.48127,0 -0.86626,-0.117641 -1.13364,-0.342228 -0.32084,-0.213893 -0.48125,-0.556122 -0.54543,-1.015992 z m 0,-0.673762 v -2.855472 c -0.73794,0.427787 -1.28336,0.898351 -1.63629,1.390305 -0.23527,0.331533 -0.35291,0.663068 -0.35291,0.994601 0,0.278062 0.0962,0.524039 0.29945,0.737931 0.14972,0.16042 0.36362,0.245977 0.64168,0.245977 0.28875,0 0.64167,-0.171114 1.04807,-0.513342 z m 8.10654,-6.598599 v 1.101549 c 0.43849,-0.470565 0.85557,-0.823487 1.25128,-1.037381 0.3957,-0.213892 0.83418,-0.320839 1.29405,-0.320839 0.55612,0 1.01599,0.149725 1.37961,0.45987 0.36361,0.310145 0.60959,0.684457 0.72724,1.144327 0.0962,0.352923 0.14972,1.015991 0.14972,1.999899 v 3.315342 c 0,0.652373 0.0642,1.069464 0.18181,1.229883 0.11765,0.160421 0.36362,0.267368 0.73793,0.310146 v 0.320839 h -4.30995 v -0.331534 c 0.32085,-0.04278 0.55613,-0.181809 0.69516,-0.395702 0.0962,-0.149725 0.14972,-0.524038 0.14972,-1.133632 V 63.07348 c 0,-0.695151 -0.0215,-1.133632 -0.0855,-1.315441 -0.0535,-0.181809 -0.14972,-0.320839 -0.27805,-0.427785 -0.12834,-0.09624 -0.27807,-0.149725 -0.42779,-0.149725 -0.52404,0 -1.0053,0.374311 -1.45447,1.122937 v 4.566615 c 0,0.641679 0.0642,1.037381 0.18181,1.208495 0.11763,0.171115 0.34222,0.278062 0.66306,0.32084 v 0.320839 h -4.30993 v -0.331534 c 0.3636,-0.03208 0.60959,-0.149725 0.77,-0.342229 0.10695,-0.128336 0.16043,-0.524037 0.16043,-1.187105 v -4.812592 c 0,-0.641679 -0.0642,-1.048077 -0.18181,-1.197801 -0.11764,-0.160419 -0.36362,-0.256672 -0.73793,-0.310144 v -0.34223 z m 10.81228,8.876559 -2.74851,-6.320538 c -0.41709,-0.951823 -0.71655,-1.540029 -0.91974,-1.753923 -0.19251,-0.213892 -0.43848,-0.374311 -0.71654,-0.459868 v -0.34223 h 4.53452 v 0.34223 c -0.29944,0.0107 -0.50264,0.07486 -0.63098,0.171114 -0.11763,0.106946 -0.18181,0.224587 -0.18181,0.374312 0,0.235282 0.14973,0.684457 0.45987,1.368915 l 1.45447,3.336729 0.9946,-2.577409 c 0.36363,-0.919739 0.53474,-1.561418 0.53474,-1.914342 0,-0.224588 -0.0749,-0.406397 -0.22459,-0.534732 -0.14972,-0.128336 -0.40639,-0.203198 -0.7914,-0.213893 v -0.342229 h 2.85547 v 0.342229 c -0.27806,0.03208 -0.50265,0.139031 -0.68446,0.320839 -0.18181,0.181809 -0.47056,0.812793 -0.88765,1.892954 l -2.42769,6.309842 c -0.6096,1.582807 -1.06946,2.556021 -1.36891,2.919638 -0.41709,0.513344 -0.94113,0.770015 -1.57211,0.770015 -0.50266,0 -0.90906,-0.149725 -1.22989,-0.438481 -0.31015,-0.288755 -0.47057,-0.641679 -0.47057,-1.048076 0,-0.352922 0.10694,-0.641678 0.32085,-0.876961 0.21389,-0.235282 0.48125,-0.342228 0.80209,-0.342228 0.29945,0 0.54543,0.09624 0.73793,0.288755 0.18181,0.192504 0.27807,0.491955 0.28876,0.898351 0.0107,0.235283 0.032,0.385008 0.0855,0.449175 0.0535,0.06416 0.11765,0.09624 0.2139,0.09624 0.14973,0 0.29944,-0.08556 0.47056,-0.267365 0.24597,-0.256672 0.52404,-0.834182 0.85557,-1.753922 z"
     id="path5253"
     style="stroke-width:1.06946" />
</svg>
